<svg width="311" height="52" viewBox="0 0 311 52" fill="none" xmlns="http://www.w3.org/2000/svg">
<path d="M78.492 12.188L74.576 44H68.812L70.55 30.03H57.152L55.436 44H49.694L53.61 12.188H59.352L57.658 25.982H71.034L72.75 12.188H78.492ZM88.4333 21.428L85.7273 44H80.3813L83.0873 21.428H88.4333ZM89.8193 14.85C89.8193 15.3193 89.7166 15.7593 89.5113 16.17C89.3206 16.5807 89.0639 16.94 88.7413 17.248C88.4186 17.556 88.0519 17.8053 87.6413 17.996C87.2306 18.172 86.8053 18.26 86.3653 18.26C85.9399 18.26 85.5293 18.172 85.1333 17.996C84.7373 17.8053 84.3853 17.556 84.0773 17.248C83.7693 16.94 83.5199 16.5807 83.3293 16.17C83.1533 15.7593 83.0653 15.3193 83.0653 14.85C83.0653 14.3807 83.1606 13.9333 83.3513 13.508C83.5419 13.0827 83.7913 12.716 84.0993 12.408C84.4073 12.0853 84.7593 11.836 85.1553 11.66C85.5659 11.4693 85.9839 11.374 86.4093 11.374C86.8493 11.374 87.2746 11.4693 87.6853 11.66C88.0959 11.836 88.4553 12.078 88.7633 12.386C89.0859 12.694 89.3426 13.0607 89.5333 13.486C89.7239 13.9113 89.8193 14.366 89.8193 14.85ZM112.77 21.428L97.8544 50.248C97.6491 50.6293 97.4071 50.908 97.1284 51.084C96.8497 51.2747 96.5051 51.37 96.0944 51.37H92.0684L97.0844 42.262L91.3864 21.428H95.9404C96.3364 21.428 96.6297 21.5307 96.8204 21.736C97.0257 21.9267 97.1651 22.1613 97.2384 22.44L100.01 34.144C100.157 34.892 100.267 35.64 100.34 36.388C100.502 36.0067 100.663 35.6327 100.824 35.266C101 34.8847 101.176 34.5033 101.352 34.122L106.918 22.418C107.065 22.1247 107.278 21.89 107.556 21.714C107.835 21.5233 108.121 21.428 108.414 21.428H112.77ZM126.66 24.992C126.455 24.9773 126.257 24.97 126.066 24.97C125.89 24.9553 125.714 24.948 125.538 24.948C124.321 24.948 123.192 25.2267 122.15 25.784C121.109 26.3413 120.207 27.0967 119.444 28.05C118.696 28.9887 118.102 30.0887 117.662 31.35C117.237 32.5967 117.024 33.9167 117.024 35.31C117.024 36.894 117.274 38.0527 117.772 38.786C118.271 39.5193 118.953 39.886 119.818 39.886C120.42 39.886 121.006 39.6807 121.578 39.27C122.165 38.8447 122.715 38.2727 123.228 37.554C123.756 36.8207 124.233 35.9627 124.658 34.98C125.098 33.9973 125.48 32.9413 125.802 31.812L126.66 24.992ZM125.164 39.292C124.167 40.832 123.038 42.0567 121.776 42.966C120.53 43.8753 119.166 44.33 117.684 44.33C116.834 44.33 116.034 44.1613 115.286 43.824C114.553 43.4867 113.908 42.988 113.35 42.328C112.808 41.6533 112.375 40.8173 112.052 39.82C111.744 38.808 111.59 37.6273 111.59 36.278C111.59 34.9287 111.759 33.616 112.096 32.34C112.434 31.064 112.91 29.8687 113.526 28.754C114.157 27.6247 114.912 26.5907 115.792 25.652C116.672 24.7133 117.655 23.9067 118.74 23.232C119.84 22.5573 121.021 22.0367 122.282 21.67C123.558 21.2887 124.9 21.098 126.308 21.098C127.32 21.098 128.332 21.1713 129.344 21.318C130.371 21.4647 131.368 21.7287 132.336 22.11L129.63 44H126.748C126.059 44 125.59 43.8313 125.34 43.494C125.106 43.142 124.988 42.7093 124.988 42.196L125.164 39.292ZM149.563 24.992C149.357 24.9773 149.159 24.97 148.969 24.97C148.793 24.9553 148.617 24.948 148.441 24.948C147.223 24.948 146.094 25.2267 145.053 25.784C144.011 26.3413 143.109 27.0967 142.347 28.05C141.599 28.9887 141.005 30.0887 140.565 31.35C140.139 32.5967 139.927 33.9167 139.927 35.31C139.927 36.894 140.176 38.0527 140.675 38.786C141.173 39.5193 141.855 39.886 142.721 39.886C143.322 39.886 143.909 39.6807 144.481 39.27C145.067 38.8447 145.617 38.2727 146.131 37.554C146.659 36.8207 147.135 35.9627 147.561 34.98C148.001 33.9973 148.382 32.9413 148.705 31.812L149.563 24.992ZM148.067 39.292C147.069 40.832 145.94 42.0567 144.679 42.966C143.432 43.8753 142.068 44.33 140.587 44.33C139.736 44.33 138.937 44.1613 138.189 43.824C137.455 43.4867 136.81 42.988 136.253 42.328C135.71 41.6533 135.277 40.8173 134.955 39.82C134.647 38.808 134.493 37.6273 134.493 36.278C134.493 34.9287 134.661 33.616 134.999 32.34C135.336 31.064 135.813 29.8687 136.429 28.754C137.059 27.6247 137.815 26.5907 138.695 25.652C139.575 24.7133 140.557 23.9067 141.643 23.232C142.743 22.5573 143.923 22.0367 145.185 21.67C146.461 21.2887 147.803 21.098 149.211 21.098C150.223 21.098 151.235 21.1713 152.247 21.318C153.273 21.4647 154.271 21.7287 155.239 22.11L152.533 44H149.651C148.961 44 148.492 43.8313 148.243 43.494C148.008 43.142 147.891 42.7093 147.891 42.196L148.067 39.292ZM164.655 26.84C165.227 25.7253 165.836 24.772 166.481 23.98C167.141 23.1733 167.823 22.55 168.527 22.11C169.231 21.6553 169.957 21.3913 170.705 21.318C171.453 21.23 172.201 21.3473 172.949 21.67L171.959 26.862C170.17 26.114 168.6 26.2973 167.251 27.412C165.916 28.5267 164.846 30.7193 164.039 33.99L162.829 44H157.505L160.233 21.406H163.005C163.577 21.406 164.017 21.5453 164.325 21.824C164.648 22.1027 164.809 22.55 164.809 23.166L164.655 26.84ZM196.916 25.674C196.755 25.9087 196.601 26.0773 196.454 26.18C196.308 26.268 196.117 26.312 195.882 26.312C195.618 26.312 195.354 26.2387 195.09 26.092C194.826 25.9453 194.518 25.784 194.166 25.608C193.829 25.4173 193.433 25.2487 192.978 25.102C192.538 24.9553 192.01 24.882 191.394 24.882C190.236 24.882 189.348 25.146 188.732 25.674C188.116 26.1873 187.808 26.8327 187.808 27.61C187.808 28.2113 188.021 28.6953 188.446 29.062C188.886 29.4287 189.436 29.7513 190.096 30.03C190.756 30.3087 191.46 30.5947 192.208 30.888C192.971 31.1667 193.682 31.526 194.342 31.966C195.002 32.3913 195.545 32.9487 195.97 33.638C196.41 34.3127 196.63 35.1853 196.63 36.256C196.63 37.3413 196.41 38.3753 195.97 39.358C195.545 40.3407 194.929 41.206 194.122 41.954C193.316 42.6873 192.34 43.274 191.196 43.714C190.067 44.1393 188.791 44.352 187.368 44.352C186.664 44.352 185.975 44.2787 185.3 44.132C184.626 44 183.995 43.8093 183.408 43.56C182.836 43.3107 182.308 43.0173 181.824 42.68C181.34 42.3427 180.93 41.976 180.592 41.58L181.934 39.512C182.096 39.2627 182.286 39.072 182.506 38.94C182.726 38.808 182.998 38.742 183.32 38.742C183.628 38.742 183.907 38.8373 184.156 39.028C184.406 39.2187 184.692 39.4313 185.014 39.666C185.352 39.886 185.755 40.0913 186.224 40.282C186.708 40.4727 187.324 40.568 188.072 40.568C188.674 40.568 189.202 40.4873 189.656 40.326C190.126 40.1647 190.522 39.9447 190.844 39.666C191.167 39.3873 191.409 39.0647 191.57 38.698C191.732 38.3313 191.812 37.9427 191.812 37.532C191.812 37.0333 191.688 36.6227 191.438 36.3C191.189 35.9627 190.852 35.6767 190.426 35.442C190.016 35.1927 189.546 34.98 189.018 34.804C188.49 34.6133 187.948 34.4153 187.39 34.21C186.848 34.0047 186.312 33.77 185.784 33.506C185.271 33.242 184.802 32.912 184.376 32.516C183.966 32.1053 183.636 31.614 183.386 31.042C183.137 30.4553 183.012 29.744 183.012 28.908C183.012 27.9107 183.203 26.9427 183.584 26.004C183.966 25.0507 184.523 24.2147 185.256 23.496C185.99 22.7627 186.892 22.176 187.962 21.736C189.048 21.296 190.287 21.076 191.68 21.076C193.118 21.076 194.394 21.3253 195.508 21.824C196.623 22.308 197.554 22.9313 198.302 23.694L196.916 25.674ZM201.614 39.402C201.614 39.2993 201.614 39.182 201.614 39.05C201.614 38.9033 201.622 38.698 201.636 38.434C201.666 38.1553 201.702 37.796 201.746 37.356C201.805 36.9013 201.878 36.322 201.966 35.618L203.22 25.498H201.086C200.822 25.498 200.602 25.4027 200.426 25.212C200.265 25.0213 200.214 24.7353 200.272 24.354L200.514 22.198L203.946 21.604L205.75 15.444C205.853 15.1507 206.007 14.9233 206.212 14.762C206.418 14.6007 206.674 14.52 206.982 14.52H209.886L209.006 21.626H214.462L214 25.498H208.522L207.312 35.332C207.239 35.9333 207.18 36.41 207.136 36.762C207.092 37.114 207.056 37.3927 207.026 37.598C207.012 37.7887 207.004 37.928 207.004 38.016C207.004 38.0893 207.004 38.1407 207.004 38.17C207.004 38.7273 207.136 39.1673 207.4 39.49C207.679 39.8127 208.068 39.974 208.566 39.974C208.874 39.974 209.138 39.9373 209.358 39.864C209.578 39.776 209.769 39.688 209.93 39.6C210.092 39.512 210.238 39.4313 210.37 39.358C210.502 39.27 210.627 39.226 210.744 39.226C210.906 39.226 211.03 39.27 211.118 39.358C211.206 39.4313 211.287 39.5487 211.36 39.71L212.526 42.35C211.72 43.01 210.825 43.5087 209.842 43.846C208.874 44.1833 207.884 44.352 206.872 44.352C205.274 44.352 204.005 43.9193 203.066 43.054C202.142 42.1887 201.658 40.9713 201.614 39.402ZM224.625 40.15C225.534 40.15 226.356 39.8933 227.089 39.38C227.822 38.852 228.446 38.1553 228.959 37.29C229.472 36.41 229.868 35.3907 230.147 34.232C230.426 33.0733 230.565 31.856 230.565 30.58C230.565 28.7467 230.257 27.4047 229.641 26.554C229.025 25.6887 228.086 25.256 226.825 25.256C225.916 25.256 225.087 25.5127 224.339 26.026C223.606 26.5393 222.982 27.236 222.469 28.116C221.956 28.9813 221.56 29.9933 221.281 31.152C221.002 32.3107 220.863 33.5353 220.863 34.826C220.863 36.6593 221.171 38.0087 221.787 38.874C222.403 39.7247 223.349 40.15 224.625 40.15ZM224.119 44.33C222.872 44.33 221.721 44.1247 220.665 43.714C219.609 43.2887 218.692 42.6727 217.915 41.866C217.138 41.0593 216.529 40.0693 216.089 38.896C215.649 37.7227 215.429 36.3807 215.429 34.87C215.429 32.9193 215.744 31.1007 216.375 29.414C217.006 27.7273 217.856 26.268 218.927 25.036C220.012 23.804 221.274 22.836 222.711 22.132C224.148 21.428 225.681 21.076 227.309 21.076C228.556 21.076 229.707 21.2887 230.763 21.714C231.834 22.1247 232.75 22.7333 233.513 23.54C234.29 24.3467 234.899 25.3367 235.339 26.51C235.779 27.6833 235.999 29.0253 235.999 30.536C235.999 32.472 235.684 34.2833 235.053 35.97C234.422 37.642 233.564 39.1013 232.479 40.348C231.408 41.58 230.154 42.5553 228.717 43.274C227.28 43.978 225.747 44.33 224.119 44.33ZM245.522 26.84C246.094 25.7253 246.703 24.772 247.348 23.98C248.008 23.1733 248.69 22.55 249.394 22.11C250.098 21.6553 250.824 21.3913 251.572 21.318C252.32 21.23 253.068 21.3473 253.816 21.67L252.826 26.862C251.037 26.114 249.468 26.2973 248.118 27.412C246.784 28.5267 245.713 30.7193 244.906 33.99L243.696 44H238.372L241.1 21.406H243.872C244.444 21.406 244.884 21.5453 245.192 21.824C245.515 22.1027 245.676 22.55 245.676 23.166L245.522 26.84ZM262.199 21.428L259.493 44H254.147L256.853 21.428H262.199ZM263.585 14.85C263.585 15.3193 263.482 15.7593 263.277 16.17C263.086 16.5807 262.83 16.94 262.507 17.248C262.184 17.556 261.818 17.8053 261.407 17.996C260.996 18.172 260.571 18.26 260.131 18.26C259.706 18.26 259.295 18.172 258.899 17.996C258.503 17.8053 258.151 17.556 257.843 17.248C257.535 16.94 257.286 16.5807 257.095 16.17C256.919 15.7593 256.831 15.3193 256.831 14.85C256.831 14.3807 256.926 13.9333 257.117 13.508C257.308 13.0827 257.557 12.716 257.865 12.408C258.173 12.0853 258.525 11.836 258.921 11.66C259.332 11.4693 259.75 11.374 260.175 11.374C260.615 11.374 261.04 11.4693 261.451 11.66C261.862 11.836 262.221 12.078 262.529 12.386C262.852 12.694 263.108 13.0607 263.299 13.486C263.49 13.9113 263.585 14.366 263.585 14.85ZM276.482 24.904C275.749 24.904 275.067 25.058 274.436 25.366C273.805 25.6593 273.233 26.0773 272.72 26.62C272.221 27.1627 271.781 27.8153 271.4 28.578C271.033 29.326 270.74 30.1473 270.52 31.042C272.339 30.7927 273.798 30.5213 274.898 30.228C276.013 29.92 276.871 29.5973 277.472 29.26C278.073 28.908 278.469 28.534 278.66 28.138C278.865 27.7273 278.968 27.302 278.968 26.862C278.968 26.642 278.917 26.4147 278.814 26.18C278.726 25.9453 278.579 25.74 278.374 25.564C278.183 25.3733 277.927 25.2193 277.604 25.102C277.296 24.97 276.922 24.904 276.482 24.904ZM270.058 34.804C270.058 38.3533 271.561 40.128 274.568 40.128C275.213 40.128 275.785 40.0693 276.284 39.952C276.783 39.82 277.215 39.666 277.582 39.49C277.963 39.314 278.301 39.116 278.594 38.896C278.902 38.676 279.181 38.478 279.43 38.302C279.694 38.126 279.951 37.9793 280.2 37.862C280.449 37.73 280.721 37.664 281.014 37.664C281.19 37.664 281.359 37.708 281.52 37.796C281.696 37.884 281.85 38.0013 281.982 38.148L283.368 39.82C282.591 40.5973 281.828 41.272 281.08 41.844C280.332 42.416 279.569 42.8853 278.792 43.252C278.015 43.6187 277.193 43.89 276.328 44.066C275.463 44.242 274.524 44.33 273.512 44.33C272.192 44.33 270.997 44.11 269.926 43.67C268.855 43.2153 267.939 42.5847 267.176 41.778C266.413 40.9567 265.819 39.974 265.394 38.83C264.983 37.6713 264.778 36.3807 264.778 34.958C264.778 33.77 264.903 32.604 265.152 31.46C265.416 30.316 265.79 29.2307 266.274 28.204C266.758 27.1773 267.352 26.2313 268.056 25.366C268.76 24.5007 269.552 23.7527 270.432 23.122C271.327 22.4913 272.302 22 273.358 21.648C274.429 21.296 275.573 21.12 276.79 21.12C277.963 21.12 278.99 21.2887 279.87 21.626C280.765 21.9633 281.505 22.4033 282.092 22.946C282.693 23.474 283.141 24.068 283.434 24.728C283.727 25.388 283.874 26.0333 283.874 26.664C283.874 27.676 283.669 28.6 283.258 29.436C282.862 30.272 282.143 31.02 281.102 31.68C280.075 32.34 278.667 32.912 276.878 33.396C275.089 33.8653 272.815 34.2393 270.058 34.518V34.804ZM301.201 25.674C301.04 25.9087 300.886 26.0773 300.739 26.18C300.593 26.268 300.402 26.312 300.167 26.312C299.903 26.312 299.639 26.2387 299.375 26.092C299.111 25.9453 298.803 25.784 298.451 25.608C298.114 25.4173 297.718 25.2487 297.263 25.102C296.823 24.9553 296.295 24.882 295.679 24.882C294.521 24.882 293.633 25.146 293.017 25.674C292.401 26.1873 292.093 26.8327 292.093 27.61C292.093 28.2113 292.306 28.6953 292.731 29.062C293.171 29.4287 293.721 29.7513 294.381 30.03C295.041 30.3087 295.745 30.5947 296.493 30.888C297.256 31.1667 297.967 31.526 298.627 31.966C299.287 32.3913 299.83 32.9487 300.255 33.638C300.695 34.3127 300.915 35.1853 300.915 36.256C300.915 37.3413 300.695 38.3753 300.255 39.358C299.83 40.3407 299.214 41.206 298.407 41.954C297.601 42.6873 296.625 43.274 295.481 43.714C294.352 44.1393 293.076 44.352 291.653 44.352C290.949 44.352 290.26 44.2787 289.585 44.132C288.911 44 288.28 43.8093 287.693 43.56C287.121 43.3107 286.593 43.0173 286.109 42.68C285.625 42.3427 285.215 41.976 284.877 41.58L286.219 39.512C286.381 39.2627 286.571 39.072 286.791 38.94C287.011 38.808 287.283 38.742 287.605 38.742C287.913 38.742 288.192 38.8373 288.441 39.028C288.691 39.2187 288.977 39.4313 289.299 39.666C289.637 39.886 290.04 40.0913 290.509 40.282C290.993 40.4727 291.609 40.568 292.357 40.568C292.959 40.568 293.487 40.4873 293.941 40.326C294.411 40.1647 294.807 39.9447 295.129 39.666C295.452 39.3873 295.694 39.0647 295.855 38.698C296.017 38.3313 296.097 37.9427 296.097 37.532C296.097 37.0333 295.973 36.6227 295.723 36.3C295.474 35.9627 295.137 35.6767 294.711 35.442C294.301 35.1927 293.831 34.98 293.303 34.804C292.775 34.6133 292.233 34.4153 291.675 34.21C291.133 34.0047 290.597 33.77 290.069 33.506C289.556 33.242 289.087 32.912 288.661 32.516C288.251 32.1053 287.921 31.614 287.671 31.042C287.422 30.4553 287.297 29.744 287.297 28.908C287.297 27.9107 287.488 26.9427 287.869 26.004C288.251 25.0507 288.808 24.2147 289.541 23.496C290.275 22.7627 291.177 22.176 292.247 21.736C293.333 21.296 294.572 21.076 295.965 21.076C297.403 21.076 298.679 21.3253 299.793 21.824C300.908 22.308 301.839 22.9313 302.587 23.694L301.201 25.674Z" fill="white"/>
<rect x="42" y="40.6863" width="6.19402" height="18.2304" rx="3.09701" transform="rotate(135 42 40.6863)" fill="#076AE0"/>
<circle cx="18.8613" cy="24.8613" r="18.8613" fill="#076AE0"/>
<path d="M28.5755 14.5153L25.9655 35.6418H21.2095L22.326 26.6518H14.699L13.5825 35.6418H8.8265L11.4365 14.5153H16.1925L15.0905 23.4328H22.7175L23.8195 14.5153H28.5755Z" fill="white"/>
</svg>
